<svg width="37" height="36" viewBox="0 0 37 36" fill="none" xmlns="http://www.w3.org/2000/svg">
<path d="M30.2308 28.8381V24.6813" stroke="#222222" stroke-miterlimit="10" stroke-linecap="round" stroke-linejoin="round"/>
<path d="M27.4239 22.144C27.37 21.928 27.37 21.7661 27.316 21.5501C27.262 20.0386 28.4497 18.7969 29.9612 18.689C31.5268 18.635 32.8224 19.7686 32.8764 21.2802C32.8764 21.874 32.7144 22.4139 32.4445 22.8998" stroke="#222222" stroke-miterlimit="10" stroke-linecap="round" stroke-linejoin="round"/>
<path d="M28.0182 22.036C28.0182 22.036 27.4784 22.036 27.1545 22.4139C25.6969 23.8715 26.9385 26.5167 29.3678 25.491" stroke="#222222" stroke-miterlimit="10" stroke-linecap="round" stroke-linejoin="round"/>
<path d="M30.9873 25.7069C31.1493 25.7609 31.3112 25.7609 31.4732 25.8149C32.5529 25.8689 33.4706 25.0051 33.4706 23.9794C33.4706 23.3316 33.2007 22.7378 32.7688 22.3599" stroke="#222222" stroke-miterlimit="10" stroke-linecap="round" stroke-linejoin="round"/>
<path d="M6.63954 26.6247C6.58556 26.4627 6.58556 26.4088 6.58556 26.2468C6.53157 25.2211 7.34134 24.3573 8.42103 24.3034C9.50073 24.2494 10.3645 25.0052 10.4185 26.0309C10.4185 26.4088 10.3105 26.7867 10.0946 27.1106" stroke="#222222" stroke-miterlimit="10" stroke-linecap="round" stroke-linejoin="round"/>
<path d="M7.01823 27.0566C7.01823 27.0566 6.85628 26.7327 6.53237 26.6247C5.23674 26.1388 3.94111 27.5964 5.23674 28.8381" stroke="#222222" stroke-miterlimit="10" stroke-linecap="round" stroke-linejoin="round"/>
<path d="M10.3647 26.5167C10.6887 26.5167 11.0126 26.5707 11.2825 26.7866C11.8763 27.2185 11.9303 28.0823 11.4984 28.6221C11.4444 28.7301 11.3365 28.7841 11.2285 28.8381" stroke="#222222" stroke-miterlimit="10" stroke-linecap="round" stroke-linejoin="round"/>
<path d="M3.72485 29L34.1722 28.838" stroke="#222222" stroke-miterlimit="10" stroke-linecap="round" stroke-linejoin="round"/>
<path d="M10.041 25.0592V16.7456" stroke="#222222" stroke-miterlimit="10" stroke-linecap="round" stroke-linejoin="round"/>
<path d="M30.1774 16.7455L22.3497 8H18.9486H15.6016L7.7738 16.7455H30.1774Z" stroke="#222222" stroke-miterlimit="10" stroke-linecap="round" stroke-linejoin="round"/>
<path d="M27.8562 28.892V25.653" stroke="#222222" stroke-miterlimit="10" stroke-linecap="round" stroke-linejoin="round"/>
<path d="M27.8562 19.8767V16.7456" stroke="#222222" stroke-miterlimit="10" stroke-linecap="round" stroke-linejoin="round"/>
<path d="M19.3273 28.8921H24.4018H27.8568" stroke="#222222" stroke-miterlimit="10" stroke-linecap="round" stroke-linejoin="round"/>
<path d="M24.347 28.8921V20.5244H19.2725V28.8921" stroke="#222222" stroke-miterlimit="10" stroke-linecap="round" stroke-linejoin="round"/>
<path d="M13.4423 20.5244V24.3034H16.3034" stroke="#222222" stroke-miterlimit="10" stroke-linecap="round" stroke-linejoin="round"/>
<path d="M18.5165 10.1054H13.7659" stroke="#222222" stroke-miterlimit="10" stroke-linecap="round" stroke-linejoin="round"/>
</svg>
