<svg width="37" height="36" viewBox="0 0 37 36" fill="none" xmlns="http://www.w3.org/2000/svg">
<path d="M29.8938 10.2683V7H5.60107L5.69864 10.3659" stroke="#222222" stroke-miterlimit="10" stroke-linecap="round" stroke-linejoin="round"/>
<path d="M5.69864 17L5.60107 29H29.8938V16.6098" stroke="#222222" stroke-miterlimit="10" stroke-linecap="round" stroke-linejoin="round"/>
<path d="M22.3813 29V20.4146H26.7228V29" stroke="#222222" stroke-miterlimit="10" stroke-linecap="round" stroke-linejoin="round"/>
<path d="M9.30843 13.8781C9.30843 15.439 8.04014 16.7073 6.47916 16.7073C4.91819 16.7073 3.6499 15.439 3.6499 13.8781" stroke="#222222" stroke-miterlimit="10" stroke-linecap="round" stroke-linejoin="round"/>
<path d="M9.30811 13.8781C9.30811 15.439 10.5764 16.7073 12.1374 16.7073C13.6984 16.7073 14.9667 15.439 14.9667 13.8781" stroke="#222222" stroke-miterlimit="10" stroke-linecap="round" stroke-linejoin="round"/>
<path d="M14.9663 13.8781C14.9663 15.439 16.2346 16.7073 17.7956 16.7073C19.3565 16.7073 20.6248 15.439 20.6248 13.8781" stroke="#222222" stroke-miterlimit="10" stroke-linecap="round" stroke-linejoin="round"/>
<path d="M20.6743 13.8781C20.6743 15.439 21.9426 16.7073 23.5036 16.7073C25.0646 16.7073 26.3328 15.439 26.3328 13.8781" stroke="#222222" stroke-miterlimit="10" stroke-linecap="round" stroke-linejoin="round"/>
<path d="M26.3325 13.8781C26.3325 15.439 27.6008 16.7073 29.1618 16.7073C30.7228 16.7073 31.991 15.439 31.991 13.8781" stroke="#222222" stroke-miterlimit="10" stroke-linecap="round" stroke-linejoin="round"/>
<path d="M20.6741 13.878L20.4302 10.3658" stroke="#222222" stroke-miterlimit="10" stroke-linecap="round" stroke-linejoin="round"/>
<path d="M14.9663 13.878L15.2102 10.3658" stroke="#222222" stroke-miterlimit="10" stroke-linecap="round" stroke-linejoin="round"/>
<path d="M9.30811 13.878L10.5276 10.3658" stroke="#222222" stroke-miterlimit="10" stroke-linecap="round" stroke-linejoin="round"/>
<path d="M5.74746 10.3658L3.6499 13.878" stroke="#222222" stroke-miterlimit="10" stroke-linecap="round" stroke-linejoin="round"/>
<path d="M26.3333 13.878L25.1138 10.3658" stroke="#222222" stroke-miterlimit="10" stroke-linecap="round" stroke-linejoin="round"/>
<path d="M32.0404 13.878L29.894 10.3658" stroke="#222222" stroke-miterlimit="10" stroke-linecap="round" stroke-linejoin="round"/>
<path d="M7.21045 10.3658H28.6251" stroke="#222222" stroke-miterlimit="10" stroke-linecap="round" stroke-linejoin="round"/>
<path d="M5.60092 29H4.43018" stroke="#222222" stroke-miterlimit="10" stroke-linecap="round" stroke-linejoin="round"/>
<path d="M31.0648 29H29.894" stroke="#222222" stroke-miterlimit="10" stroke-linecap="round" stroke-linejoin="round"/>
<path d="M8.57666 20.4146V24.7073H9.84497H11.1133" stroke="#222222" stroke-miterlimit="10" stroke-linecap="round" stroke-linejoin="round"/>
<path d="M16.48 20.4146V24.7073H17.7483H19.0166" stroke="#222222" stroke-miterlimit="10" stroke-linecap="round" stroke-linejoin="round"/>
</svg>
